<?xml version="1.0" encoding="UTF-8"?>
<svg version="1.1" xmlns="http://www.w3.org/2000/svg" width="192" height="192">
<path d="M0 0 C12.4516794 10.45463814 21.057861 24.45013777 23.10986328 40.73632812 C24.60739503 58.01611804 19.47537783 72.579737 8.76953125 86.14453125 C0.45203701 95.93243965 -9.53147441 102.29729639 -21.16796875 107.53125 C-21.84214844 107.83804688 -22.51632813 108.14484375 -23.2109375 108.4609375 C-36.23003749 113.84623685 -49.63573962 113.98141793 -63.4609375 113.9296875 C-65.38430389 113.93171279 -67.30766953 113.93462799 -69.23103333 113.93838501 C-73.23067654 113.94277527 -77.23011692 113.93647681 -81.22973633 113.92236328 C-86.35890885 113.9051451 -91.4876147 113.91521251 -96.61677074 113.93308067 C-100.57409719 113.94389951 -104.53131201 113.94048314 -108.48864174 113.9326973 C-110.38131071 113.93069661 -112.27398982 113.93314995 -114.16664696 113.94013596 C-116.79911821 113.94773309 -119.43081882 113.93617686 -122.06323242 113.91943359 C-122.84396622 113.92550629 -123.62470001 113.93157898 -124.42909241 113.93783569 C-129.66828306 113.8759285 -129.66828306 113.8759285 -132.13349915 112.17544556 C-133.92661812 109.32544568 -133.82589399 107.84437355 -133.16796875 104.53125 C-130.96243841 101.59206184 -128.35389067 99.15343146 -125.66796875 96.65625 C-124.95253906 95.96789062 -124.23710938 95.27953125 -123.5 94.5703125 C-121.73540868 92.87630484 -119.95838951 91.19786507 -118.16796875 89.53125 C-119.88877987 85.99728924 -121.91374431 82.77507399 -124.04296875 79.46875 C-130.437133 69.30270677 -133.34563144 59.63173015 -133.35546875 47.71875 C-133.37383789 46.56536133 -133.37383789 46.56536133 -133.39257812 45.38867188 C-133.433222 29.33434305 -125.61181432 15.2379992 -114.79296875 3.78125 C-83.5872814 -25.60934144 -33.2343127 -26.51334454 0 0 Z " fill="#2096F2" transform="translate(133.16796875,18.46875)"/>
<path d="M0 0 C10.07249929 4.88720983 16.49277027 15.37889619 20.359375 25.58984375 C21.32876499 28.71226296 22.21032005 31.82789578 23 35 C23.18949219 35.62261719 23.37898437 36.24523437 23.57421875 36.88671875 C26.45378365 51.17887114 23.19953942 65.77203941 15.42944336 77.8996582 C14.61937411 79.10656107 13.79265567 80.3025022 12.94750977 81.48510742 C10.63081877 84.74434726 10 85.83620867 10 90 C11.27187927 91.72535328 11.27187927 91.72535328 13.0625 93.2421875 C13.69414062 93.83386719 14.32578125 94.42554688 14.9765625 95.03515625 C16.32163899 96.25818912 17.67058864 97.47697629 19.0234375 98.69140625 C23.85332189 103.23544034 23.85332189 103.23544034 24.625 107.2578125 C23.90740914 110.40624238 23.63938309 111.19250447 21 113 C18.17513244 113.30153647 15.56980327 113.42003106 12.7434082 113.40405273 C11.47920044 113.41434761 11.47920044 113.41434761 10.18945312 113.42485046 C7.39305907 113.44319819 4.59722285 113.43926427 1.80078125 113.43359375 C-0.15200482 113.43815698 -2.10478928 113.44346297 -4.05757141 113.44947815 C-8.16255178 113.45842876 -12.26733791 113.45597011 -16.37231445 113.44604492 C-21.5914207 113.43464685 -26.8098411 113.45461462 -32.02885723 113.48396206 C-36.07080754 113.50247798 -40.1125989 113.50199966 -44.15458107 113.49632454 C-46.07558963 113.49617269 -47.99660993 113.50210241 -49.91757774 113.51461601 C-64.79589693 113.59776286 -79.01736282 112.45605571 -92.375 105.1875 C-93.35968262 104.67255981 -93.35968262 104.67255981 -94.36425781 104.1472168 C-101.83615736 100.15700214 -109.01884 96.01052148 -114 89 C-114.825 88.175 -115.65 87.35 -116.5 86.5 C-118.88637045 84.11362955 -121.01108458 81.72555077 -123 79 C-123 78.34 -123 77.68 -123 77 C-121.22508179 76.97812622 -121.22508179 76.97812622 -119.41430664 76.95581055 C-114.93909468 76.89695145 -110.46434102 76.81974205 -105.98950195 76.73754883 C-104.06868031 76.70470468 -102.14777151 76.67655318 -100.22680664 76.65356445 C-85.01644947 76.46676362 -69.79420109 75.73364129 -55.375 70.375 C-54.68245117 70.12121582 -53.98990234 69.86743164 -53.27636719 69.60595703 C-39.57623276 64.33499415 -25.27329483 55.40994224 -17 43 C-16.34 43 -15.68 43 -15 43 C-14.62875 41.9790625 -14.62875 41.9790625 -14.25 40.9375 C-13 38 -13 38 -11.1875 34.875 C-10.45188703 33.58699365 -9.72329172 32.29496559 -9 31 C-8.39091797 29.91525391 -8.39091797 29.91525391 -7.76953125 28.80859375 C-3.16389221 19.75319883 -1.71870508 9.92009166 0 0 Z " fill="#63B5F6" transform="translate(168,67)"/>
<path d="M0 0 C1.13459656 -0.00788544 1.13459656 -0.00788544 2.29211426 -0.01593018 C4.79391086 -0.02914054 7.29507186 -0.02038873 9.796875 -0.01025391 C11.53418093 -0.01227435 13.27148604 -0.01518554 15.00878906 -0.01895142 C18.65047274 -0.02337616 22.29193572 -0.01693894 25.93359375 -0.00292969 C30.60460984 0.01416237 35.27510884 0.00432198 39.94610596 -0.01364708 C43.53373113 -0.0244809 47.12123345 -0.02104044 50.7088623 -0.0132637 C52.43127503 -0.01126058 54.15369887 -0.01372491 55.87609863 -0.02070236 C58.28228355 -0.02831036 60.6876278 -0.01672253 63.09375 0 C64.16453796 -0.00910904 64.16453796 -0.00910904 65.25695801 -0.0184021 C68.12851 0.01862288 70.08576215 0.07084249 72.48925781 1.72494507 C74.15425684 4.34336935 73.92412703 6.37016736 73.546875 9.38818359 C72.48925781 11.05142212 72.48925781 11.05142212 70.546875 12.38818359 C67.98180685 12.68413658 65.65920515 12.79819115 63.09375 12.77636719 C61.95915344 12.78425262 61.95915344 12.78425262 60.80163574 12.79229736 C58.29983914 12.80550773 55.79867814 12.79675592 53.296875 12.78662109 C51.55956907 12.78864154 49.82226396 12.79155273 48.08496094 12.7953186 C44.44327726 12.79974335 40.80181428 12.79330613 37.16015625 12.77929688 C32.48914016 12.76220481 27.81864116 12.7720452 23.14764404 12.79001427 C19.56001887 12.80084809 15.97251655 12.79740763 12.3848877 12.78963089 C10.66247497 12.78762777 8.94005113 12.79009209 7.21765137 12.79706955 C4.81146645 12.80467755 2.4061222 12.79308972 0 12.77636719 C-1.07078796 12.78547623 -1.07078796 12.78547623 -2.16320801 12.79476929 C-5.03476 12.7577443 -6.99201215 12.70552469 -9.39550781 11.05142212 C-11.06050684 8.43299784 -10.83037703 6.40619983 -10.453125 3.38818359 C-7.94782496 -0.55172169 -4.21849151 -0.0358861 0 0 Z " fill="#F9F9F9" transform="translate(46.453125,47.61181640625)"/>
<path d="M0 0 C1.07121094 -0.00945648 2.14242187 -0.01891296 3.24609375 -0.02865601 C4.98052734 -0.01954697 4.98052734 -0.01954697 6.75 -0.01025391 C7.93722656 -0.01312408 9.12445313 -0.01599426 10.34765625 -0.01895142 C12.85937985 -0.02099417 15.37111928 -0.01544963 17.8828125 -0.00292969 C21.73473572 0.01311999 25.58560955 -0.00277228 29.4375 -0.02197266 C31.87500232 -0.01999026 34.31250399 -0.01614667 36.75 -0.01025391 C37.90628906 -0.0163266 39.06257813 -0.02239929 40.25390625 -0.02865601 C41.32511719 -0.01919952 42.39632812 -0.00974304 43.5 0 C44.91539063 0.00358017 44.91539063 0.00358017 46.359375 0.00723267 C48.75 0.38818359 48.75 0.38818359 50.5546875 1.72494507 C52.41268911 4.31029397 52.1357206 6.3024188 51.75 9.38818359 C50.5546875 11.05142212 50.5546875 11.05142212 48.75 12.38818359 C46.359375 12.76913452 46.359375 12.76913452 43.5 12.77636719 C42.42878906 12.78582367 41.35757813 12.79528015 40.25390625 12.80502319 C38.51947266 12.79591415 38.51947266 12.79591415 36.75 12.78662109 C35.56277344 12.78949127 34.37554687 12.79236145 33.15234375 12.7953186 C30.64062015 12.79736136 28.12888072 12.79181682 25.6171875 12.77929688 C21.76526428 12.76324719 17.91439045 12.77913947 14.0625 12.79833984 C11.62499768 12.79635745 9.18749601 12.79251386 6.75 12.78662109 C5.59371094 12.79269379 4.43742187 12.79876648 3.24609375 12.80502319 C2.17488281 12.79556671 1.10367188 12.78611023 0 12.77636719 C-0.94359375 12.77398041 -1.8871875 12.77159363 -2.859375 12.76913452 C-5.25 12.38818359 -5.25 12.38818359 -7.0546875 11.05142212 C-8.91268911 8.46607322 -8.6357206 6.47394838 -8.25 3.38818359 C-5.89835105 0.11594046 -3.90027529 0.00986558 0 0 Z " fill="#F8F9F9" transform="translate(44.25,71.61181640625)"/>
</svg>
